<svg version="1.1" id="Layer_1" xmlns="http://www.w3.org/2000/svg" xmlns:xlink="http://www.w3.org/1999/xlink" x="0px" y="0px"
	 width="100%" viewBox="0 0 512 512" enable-background="new 0 0 512 512" xml:space="preserve">
<path fill="#5555FF" opacity="1.000000" stroke="none" 
	d="
M0.999995,476.000000 
	C1.000000,330.309265 1.000000,184.618515 1.275832,38.804924 
	C1.929877,38.359608 2.528591,38.106312 2.654587,37.704712 
	C8.163486,20.145447 19.408875,8.307661 37.157070,2.852427 
	C37.587204,2.720217 37.725555,1.638733 38.000000,1.000000 
	C183.690750,1.000000 329.381500,1.000000 475.195038,1.275800 
	C475.640289,1.929831 475.893738,2.529140 476.295135,2.654495 
	C493.873535,8.144045 505.609039,19.492607 511.147278,37.156399 
	C511.282867,37.588722 512.361328,37.725418 513.000000,37.999996 
	C513.000000,183.690750 513.000000,329.381500 512.724243,475.195007 
	C512.070007,475.640350 511.470093,475.893921 511.345123,476.295410 
	C505.869629,493.887024 494.500397,505.601410 476.844604,511.147034 
	C476.411804,511.283020 476.274933,512.361267 476.000000,513.000000 
	C330.309265,513.000000 184.618515,513.000000 38.804893,512.724121 
	C38.359409,512.070007 38.104931,511.467072 37.704414,511.345551 
	C20.006794,505.976532 8.437268,494.461273 2.853109,476.844879 
	C2.715579,476.411041 1.638744,476.274963 0.999995,476.000000 
M32.402458,164.499863 
	C32.402592,216.146545 32.474686,267.793488 32.292698,319.439514 
	C32.274288,324.663757 34.151768,327.260681 39.044415,327.979950 
	C53.010052,330.033142 66.924431,329.500397 80.810791,327.144531 
	C84.940804,326.443848 86.648972,324.370483 86.575096,320.000031 
	C86.349861,306.675659 86.494308,293.345032 86.494843,280.016846 
	C86.494926,277.915344 86.494850,275.813812 86.494850,273.683167 
	C93.173424,273.076141 99.148659,272.800415 105.041237,271.951172 
	C130.583008,268.270142 150.440521,256.546448 161.331024,232.040634 
	C170.294403,211.871185 170.836624,191.319382 163.778503,170.706116 
	C158.985092,156.706940 149.612686,146.040573 135.600250,140.723541 
	C127.289169,137.569885 118.404266,134.691971 109.639458,134.212830 
	C87.378769,132.995941 65.041084,133.146393 42.732780,132.863983 
	C35.064266,132.766907 32.632824,135.207321 32.448158,143.008636 
	C32.286552,149.835587 32.406841,156.669205 32.402458,164.499863 
M282.172516,328.883057 
	C300.215240,324.898956 312.553833,313.682556 319.414612,297.124847 
	C329.954407,271.688141 330.280701,245.447693 321.374268,219.505890 
	C316.045990,203.986206 304.695709,193.403717 288.954559,188.583282 
	C270.688293,182.989548 253.782288,187.386368 238.072495,197.504807 
	C236.601883,198.452011 235.159058,199.442337 234.718964,199.735672 
	C229.180511,195.847992 224.788925,191.894669 219.693314,189.352356 
	C204.620758,181.832275 192.523834,186.954514 186.683777,202.708252 
	C183.531097,211.212738 184.032639,219.672302 186.742172,228.153122 
	C188.358643,233.212662 191.505493,235.997772 197.090958,235.539246 
	C199.207184,235.365509 201.349625,235.511017 204.046265,235.511017 
	C204.046265,237.968781 204.046265,239.929581 204.046265,241.890381 
	C204.046371,286.374390 204.060760,330.858368 204.015289,375.342346 
	C204.012177,378.392273 203.922424,381.069336 208.134644,381.050323 
	C221.446472,380.990173 234.758728,381.024231 248.070816,381.016174 
	C250.954193,381.014435 252.141647,379.711853 252.050980,376.688232 
	C251.861328,370.362885 251.994980,364.027863 251.995193,357.696808 
	C251.995529,348.242737 251.995285,338.788666 251.995285,328.993011 
	C262.125397,328.993011 271.722778,328.993011 282.172516,328.883057 
M479.290405,197.913864 
	C480.192932,195.326782 481.095428,192.739700 482.046509,190.013428 
	C480.618500,189.479736 479.865082,188.964462 479.100128,188.946732 
	C463.491760,188.585068 447.881927,188.156052 432.272827,188.170837 
	C430.832214,188.172211 428.622528,190.839340 428.074005,192.661255 
	C422.270569,211.936523 416.735901,231.292648 411.110870,250.621750 
	C410.736542,251.908005 410.229675,253.155685 409.426056,255.440155 
	C402.990997,234.271927 396.767365,214.262848 390.906647,194.148010 
	C389.661865,189.875748 387.452972,188.037201 383.259277,187.979034 
	C371.609314,187.817429 359.959290,187.487350 348.310364,187.528885 
	C344.799835,187.541397 341.292877,188.552734 337.232056,189.193695 
	C338.187256,191.995056 338.773773,193.866837 339.458801,195.701813 
	C354.121521,234.979156 368.842194,274.235077 383.348236,313.570129 
	C384.203613,315.889679 384.042755,319.100311 383.164154,321.451263 
	C379.846283,330.328979 376.028076,339.019409 372.413055,347.786469 
	C368.493713,357.291565 364.592133,366.803955 360.592590,376.532562 
	C362.080566,377.071411 363.141418,377.760529 364.227509,377.802948 
	C379.524597,378.399933 394.825684,378.892487 410.124359,379.449829 
	C414.457123,379.607666 416.389221,377.427490 417.794647,373.396790 
	C438.115967,315.115784 458.606232,256.893677 479.290405,197.913864 
z"/>
<path fill="#000000" opacity="1.000000" stroke="none" 
	d="
M513.000000,37.531338 
	C512.361328,37.725418 511.282867,37.588722 511.147278,37.156399 
	C505.609039,19.492607 493.873535,8.144045 476.295135,2.654495 
	C475.893738,2.529140 475.640289,1.929831 475.658936,1.275800 
	C488.259949,1.000000 500.519897,1.000000 513.000000,1.000000 
	C513.000000,13.020000 513.000000,25.041342 513.000000,37.531338 
z"/>
<path fill="#000000" opacity="1.000000" stroke="none" 
	d="
M476.468689,513.000000 
	C476.274933,512.361267 476.411804,511.283020 476.844604,511.147034 
	C494.500397,505.601410 505.869629,493.887024 511.345123,476.295410 
	C511.470093,475.893921 512.070007,475.640350 512.724243,475.658875 
	C513.000000,488.259949 513.000000,500.519897 513.000000,513.000000 
	C500.980011,513.000000 488.958649,513.000000 476.468689,513.000000 
z"/>
<path fill="#000000" opacity="1.000000" stroke="none" 
	d="
M37.531342,1.000000 
	C37.725555,1.638733 37.587204,2.720217 37.157070,2.852427 
	C19.408875,8.307661 8.163486,20.145447 2.654587,37.704712 
	C2.528591,38.106312 1.929877,38.359608 1.275832,38.341042 
	C1.000000,25.740049 1.000000,13.480098 1.000000,1.000000 
	C13.020000,1.000000 25.041342,1.000000 37.531342,1.000000 
z"/>
<path fill="#000000" opacity="1.000000" stroke="none" 
	d="
M0.999995,476.468689 
	C1.638744,476.274963 2.715579,476.411041 2.853109,476.844879 
	C8.437268,494.461273 20.006794,505.976532 37.704414,511.345551 
	C38.104931,511.467072 38.359409,512.070007 38.341011,512.724121 
	C25.740049,513.000000 13.480098,513.000000 1.000000,513.000000 
	C1.000000,500.980011 1.000000,488.958649 0.999995,476.468689 
z"/>
<path fill="#FEFEFF" opacity="1.000000" stroke="none" 
	d="
M32.402531,163.999878 
	C32.406841,156.669205 32.286552,149.835587 32.448158,143.008636 
	C32.632824,135.207321 35.064266,132.766907 42.732780,132.863983 
	C65.041084,133.146393 87.378769,132.995941 109.639458,134.212830 
	C118.404266,134.691971 127.289169,137.569885 135.600250,140.723541 
	C149.612686,146.040573 158.985092,156.706940 163.778503,170.706116 
	C170.836624,191.319382 170.294403,211.871185 161.331024,232.040634 
	C150.440521,256.546448 130.583008,268.270142 105.041237,271.951172 
	C99.148659,272.800415 93.173424,273.076141 86.494850,273.683167 
	C86.494850,275.813812 86.494926,277.915344 86.494843,280.016846 
	C86.494308,293.345032 86.349861,306.675659 86.575096,320.000031 
	C86.648972,324.370483 84.940804,326.443848 80.810791,327.144531 
	C66.924431,329.500397 53.010052,330.033142 39.044415,327.979950 
	C34.151768,327.260681 32.274288,324.663757 32.292698,319.439514 
	C32.474686,267.793488 32.402592,216.146545 32.402531,163.999878 
M94.161949,181.603134 
	C91.739655,181.603134 89.317360,181.603134 86.829346,181.603134 
	C86.829346,196.675720 86.829346,211.076721 86.829346,225.713470 
	C94.139824,226.184998 100.371346,224.463150 105.830399,220.114655 
	C112.841354,214.529938 115.398788,203.224579 112.111328,192.494904 
	C109.854393,185.128647 105.511032,182.375809 94.161949,181.603134 
z"/>
<path fill="#FEFEFF" opacity="1.000000" stroke="none" 
	d="
M281.746338,328.938049 
	C271.722778,328.993011 262.125397,328.993011 251.995285,328.993011 
	C251.995285,338.788666 251.995529,348.242737 251.995193,357.696808 
	C251.994980,364.027863 251.861328,370.362885 252.050980,376.688232 
	C252.141647,379.711853 250.954193,381.014435 248.070816,381.016174 
	C234.758728,381.024231 221.446472,380.990173 208.134644,381.050323 
	C203.922424,381.069336 204.012177,378.392273 204.015289,375.342346 
	C204.060760,330.858368 204.046371,286.374390 204.046265,241.890381 
	C204.046265,239.929581 204.046265,237.968781 204.046265,235.511017 
	C201.349625,235.511017 199.207184,235.365509 197.090958,235.539246 
	C191.505493,235.997772 188.358643,233.212662 186.742172,228.153122 
	C184.032639,219.672302 183.531097,211.212738 186.683777,202.708252 
	C192.523834,186.954514 204.620758,181.832275 219.693314,189.352356 
	C224.788925,191.894669 229.180511,195.847992 234.718964,199.735672 
	C235.159058,199.442337 236.601883,198.452011 238.072495,197.504807 
	C253.782288,187.386368 270.688293,182.989548 288.954559,188.583282 
	C304.695709,193.403717 316.045990,203.986206 321.374268,219.505890 
	C330.280701,245.447693 329.954407,271.688141 319.414612,297.124847 
	C312.553833,313.682556 300.215240,324.898956 281.746338,328.938049 
M254.121765,272.494995 
	C254.121765,277.585815 254.121765,282.676636 254.121765,288.303497 
	C258.095795,288.303497 261.253967,288.153961 264.392609,288.337524 
	C269.445587,288.633087 272.860413,286.206146 274.482056,281.771820 
	C279.013977,269.378998 279.642578,256.652008 275.606079,244.080124 
	C273.146729,236.420395 265.719666,233.539261 258.164703,236.229492 
	C255.371567,237.224091 253.955292,238.704727 254.036514,242.026367 
	C254.276611,251.844757 254.121979,261.672791 254.121765,272.494995 
z"/>
<path fill="#FEFEFF" opacity="1.000000" stroke="none" 
	d="
M479.173218,198.285675 
	C458.606232,256.893677 438.115967,315.115784 417.794647,373.396790 
	C416.389221,377.427490 414.457123,379.607666 410.124359,379.449829 
	C394.825684,378.892487 379.524597,378.399933 364.227509,377.802948 
	C363.141418,377.760529 362.080566,377.071411 360.592590,376.532562 
	C364.592133,366.803955 368.493713,357.291565 372.413055,347.786469 
	C376.028076,339.019409 379.846283,330.328979 383.164154,321.451263 
	C384.042755,319.100311 384.203613,315.889679 383.348236,313.570129 
	C368.842194,274.235077 354.121521,234.979156 339.458801,195.701813 
	C338.773773,193.866837 338.187256,191.995056 337.232056,189.193695 
	C341.292877,188.552734 344.799835,187.541397 348.310364,187.528885 
	C359.959290,187.487350 371.609314,187.817429 383.259277,187.979034 
	C387.452972,188.037201 389.661865,189.875748 390.906647,194.148010 
	C396.767365,214.262848 402.990997,234.271927 409.426056,255.440155 
	C410.229675,253.155685 410.736542,251.908005 411.110870,250.621750 
	C416.735901,231.292648 422.270569,211.936523 428.074005,192.661255 
	C428.622528,190.839340 430.832214,188.172211 432.272827,188.170837 
	C447.881927,188.156052 463.491760,188.585068 479.100128,188.946732 
	C479.865082,188.964462 480.618500,189.479736 482.046509,190.013428 
	C481.095428,192.739700 480.192932,195.326782 479.173218,198.285675 
z"/>
<path fill="#5A5AFF" opacity="1.000000" stroke="none" 
	d="
M94.592194,181.633545 
	C105.511032,182.375809 109.854393,185.128647 112.111328,192.494904 
	C115.398788,203.224579 112.841354,214.529938 105.830399,220.114655 
	C100.371346,224.463150 94.139824,226.184998 86.829346,225.713470 
	C86.829346,211.076721 86.829346,196.675720 86.829346,181.603134 
	C89.317360,181.603134 91.739655,181.603134 94.592194,181.633545 
z"/>
<path fill="#5858FF" opacity="1.000000" stroke="none" 
	d="
M254.121765,271.996033 
	C254.121979,261.672791 254.276611,251.844757 254.036514,242.026367 
	C253.955292,238.704727 255.371567,237.224091 258.164703,236.229492 
	C265.719666,233.539261 273.146729,236.420395 275.606079,244.080124 
	C279.642578,256.652008 279.013977,269.378998 274.482056,281.771820 
	C272.860413,286.206146 269.445587,288.633087 264.392609,288.337524 
	C261.253967,288.153961 258.095795,288.303497 254.121765,288.303497 
	C254.121765,282.676636 254.121765,277.585815 254.121765,271.996033 
z"/>
</svg>